<?xml version="1.0" standalone="no"?>
<!DOCTYPE svg PUBLIC "-//W3C//DTD SVG 20010904//EN"
 "http://www.w3.org/TR/2001/REC-SVG-20010904/DTD/svg10.dtd">
<svg version="1.0" xmlns="http://www.w3.org/2000/svg"
 width="50.000000pt" height="53.000000pt" viewBox="0 0 50.000000 53.000000"
 preserveAspectRatio="xMidYMid meet">

<g transform="translate(0.000000,53.000000) scale(0.100000,-0.100000)"
fill="#000000" stroke="none">
<path d="M226 493 c-11 -11 -6 -23 9 -23 8 0 15 4 15 9 0 13 -16 22 -24 14z"/>
<path d="M133 474 c-3 -8 -4 -55 -1 -103 4 -94 18 -126 50 -118 10 3 18 0 18
-6 0 -6 3 -7 8 -3 14 15 7 51 -15 73 -17 17 -23 18 -23 7 0 -8 7 -17 15 -20
21 -9 19 -34 -4 -34 -23 0 -28 21 -30 113 -1 41 2 67 8 67 6 0 11 -13 11 -30
0 -16 3 -30 8 -30 4 0 7 19 7 41 0 34 -4 43 -23 50 -17 6 -24 5 -29 -7z"/>
<path d="M292 471 c-30 -26 -38 -72 -18 -112 9 -18 16 -39 16 -48 0 -12 3 -12
12 -3 10 10 10 17 0 32 -6 11 -12 28 -12 39 0 11 -6 21 -12 24 -21 6 12 59 33
54 12 -3 16 0 12 10 -4 11 -1 14 8 11 8 -3 13 -14 11 -26 -2 -12 2 -22 7 -22
6 0 11 14 11 30 0 25 -4 30 -23 30 -13 0 -34 -8 -45 -19z"/>
<path d="M313 415 c-3 -9 -3 -18 -1 -21 3 -3 8 4 11 16 6 23 -1 27 -10 5z"/>
<path d="M320 369 c0 -9 7 -22 15 -29 19 -16 19 0 0 26 -12 16 -14 16 -15 3z"/>
<path d="M331 307 c-6 -8 -8 -16 -6 -19 8 -8 -44 -40 -55 -33 -5 3 -11 1 -15
-5 -4 -6 6 -10 23 -10 29 0 63 28 75 63 7 20 -6 23 -22 4z"/>
<path d="M250 290 c-19 -4 -21 -7 -9 -12 9 -3 22 -2 30 2 19 13 8 18 -21 10z"/>
<path d="M92 160 c0 -14 2 -19 5 -12 2 6 2 18 0 25 -3 6 -5 1 -5 -13z"/>
<path d="M135 171 c-3 -5 -1 -12 5 -16 5 -3 10 1 10 9 0 18 -6 21 -15 7z"/>
<path d="M193 160 c-1 -11 2 -20 8 -20 5 0 9 9 9 20 0 11 -4 20 -8 20 -4 0 -8
-9 -9 -20z"/>
<path d="M370 160 c0 -11 2 -20 4 -20 2 0 6 9 9 20 3 11 1 20 -4 20 -5 0 -9
-9 -9 -20z"/>
<path d="M456 167 c3 -10 9 -15 12 -12 3 3 0 11 -7 18 -10 9 -11 8 -5 -6z"/>
<path d="M41 154 c0 -11 3 -14 6 -6 3 7 2 16 -1 19 -3 4 -6 -2 -5 -13z"/>
<path d="M435 130 c3 -5 8 -10 11 -10 2 0 4 5 4 10 0 6 -5 10 -11 10 -5 0 -7
-4 -4 -10z"/>
<path d="M130 64 c0 -8 5 -12 10 -9 6 3 10 10 10 16 0 5 -4 9 -10 9 -5 0 -10
-7 -10 -16z"/>
<path d="M270 70 c0 -5 5 -10 10 -10 6 0 10 5 10 10 0 6 -4 10 -10 10 -5 0
-10 -4 -10 -10z"/>
</g>
</svg>
